# xmcd
#
# Track frame offsets:
#	182
#	18302
#	32230
#	54382
#	64370
#	80945
#	103595
#	121690
#	143900
#
# Disc length: 2274 seconds
#
# Revision: 1
# Processed by: cddbd v1.4PL0 Copyright (c) Steve Scherf et al.
# Submitted via: audiograbber 1.80.04
#
DISCID=7a08e009
DTITLE=Breakout - ZOL
DYEAR=1994
DGENRE=Blues
TTITLE0=Poki usmiech ma twarz dziecka
TTITLE1=Pozegnalny blues
TTITLE2=Dzien zwegla sie
TTITLE3=Idzie Wenus
TTITLE4=Ona odeszla stad
TTITLE5=Gdy masz przyjsc
TTITLE6=Oslepil mnie deszcz
TTITLE7=Co tam za mgla
TTITLE8=W cieniu bluesa
EXTD=Polish blues
EXTT0=
EXTT1=
EXTT2=
EXTT3=
EXTT4=
EXTT5=
EXTT6=
EXTT7=
EXTT8=
PLAYORDER=
